<?xml version="1.0" encoding="utf-8"?>
<!-- Generator: Adobe Illustrator 27.5.0, SVG Export Plug-In . SVG Version: 6.00 Build 0)  -->
<svg version="1.1" id="Ñëîé_1" xmlns="http://www.w3.org/2000/svg" xmlns:xlink="http://www.w3.org/1999/xlink" x="0px" y="0px"
	 viewBox="0 0 4000 2000" style="enable-background:new 0 0 4000 2000;" xml:space="preserve">
<g>
	<g id="_x35_">
		<rect style="fill:#EEF7FF;" width="4000" height="2000"/>
		<rect y="1275.593" style="fill:#8A9EDD;" width="4000" height="721.622"/>
		<rect y="1316.829" style="fill:#CFDDF9;" width="4000" height="680.387"/>
	</g>
	<g id="_x34_">
		<rect x="730.846" y="154.279" style="fill:#8A9EDD;" width="2538.308" height="974.037"/>
		<rect x="765.335" y="188.772" style="fill:#E3F2FC;" width="2469.33" height="905.059"/>
		<polygon style="fill:#B1D2EF;" points="3234.665,494.064 3234.665,1093.831 765.335,1093.831 765.335,561.395 917.389,561.395 
			917.389,686.549 1010.895,686.549 1010.895,787.757 1042.543,787.757 1042.543,426.929 1097.711,426.929 1097.711,388.683 
			1115.139,388.683 1115.139,356.012 1125.393,356.012 1125.393,295.579 1134.762,295.579 1134.762,356.012 1145.016,356.012 
			1145.016,388.683 1162.444,388.683 1162.444,426.929 1217.623,426.929 1217.623,787.757 1375.161,787.757 1376.908,587.203 
			1442.974,587.203 1442.974,494.765 1544.263,494.765 1544.263,587.203 1607.892,587.203 1607.524,724.462 1726.321,724.462 
			1726.321,658.534 1849.153,658.534 1849.153,724.462 1920.794,724.462 1920.794,390.694 1975.963,390.694 1975.963,352.448 
			1993.39,352.448 1993.39,319.777 2003.656,319.777 2003.656,259.344 2013.013,259.344 2013.013,319.777 2023.279,319.777 
			2023.279,352.448 2040.706,352.448 2040.706,390.694 2095.875,390.694 2095.875,724.462 2253.412,724.462 2253.412,481.706 
			2432.861,481.706 2432.861,617.114 2588.927,617.114 2588.927,444.805 2660.097,444.805 2660.097,401.581 2677.536,401.581 
			2677.536,368.922 2687.778,368.922 2687.778,308.477 2697.147,308.477 2697.147,368.922 2707.402,368.922 2707.402,401.581 
			2724.841,401.581 2724.841,444.805 2796.022,444.805 2796.022,617.114 2920.153,617.114 2920.153,279.278 3116.489,279.278 
			3116.489,494.064 		"/>
		<rect x="1568.459" y="171.528" style="fill:#8A9EDD;" width="32.322" height="943.854"/>
		<rect x="2402.288" y="171.528" style="fill:#8A9EDD;" width="32.32" height="943.854"/>
	</g>
	<g id="_x33_">
		<polygon style="fill:#F49F9F;" points="1990.233,1479.428 1609.226,1479.428 1609.226,1176.952 2052.429,1176.954 		"/>
		<path style="fill:#F49F9F;" d="M1068.211,1461.549H394.644l-99.379-622.234c-6.367-39.864,22.765-76.201,61.092-76.201h600.304
			L1068.211,1461.549z"/>
		<path style="fill:#FCB4B4;" d="M1814.62,1461.55H469L370.26,843.2l-12.79-80.09h1293.21c30.25,0,56.08,23.04,61.09,54.49
			l4.09,25.6L1814.62,1461.55z"/>
		
			<ellipse transform="matrix(1 -0.001 0.001 1 -0.9912 1.6128)" style="fill:#F49F9F;" cx="1554.872" cy="956.695" rx="15.758" ry="15.77"/>
		
			<ellipse transform="matrix(1 -0.001 0.001 1 -0.9913 1.3416)" style="fill:#F49F9F;" cx="1293.32" cy="956.677" rx="15.758" ry="15.77"/>
		
			<ellipse transform="matrix(1 -0.001 0.001 1 -1.2422 1.6524)" style="fill:#F49F9F;" cx="1592.946" cy="1198.842" rx="15.758" ry="15.77"/>
		
			<ellipse transform="matrix(1 -0.001 0.001 1 -1.2424 1.3812)" style="fill:#F49F9F;" cx="1331.395" cy="1198.824" rx="15.758" ry="15.77"/>
		
			<ellipse transform="matrix(1 -0.001 0.001 1 -1.2452 0.969)" style="fill:#F49F9F;" cx="931.927" cy="1198.842" rx="15.758" ry="15.77"/>
		<path style="fill:#FCB4B4;" d="M2005.601,1600.103l7.298,34.718l11.659,55.377c2.218,10.472,12.492,17.188,22.956,14.987
			c7.734-1.631,13.422-7.702,14.957-14.987l11.658-55.377l7.299-34.718c4.417-20.944-8.986-41.509-29.933-45.929
			c-20.928-4.42-41.478,8.992-45.894,29.956C2004.482,1589.498,2004.558,1595.037,2005.601,1600.103z"/>
		<path style="fill:#F49F9F;" d="M2005.601,1600.103l7.298,34.718h61.23l7.299-34.718c4.417-20.944-8.986-41.509-29.933-45.929
			c-20.928-4.42-41.478,8.992-45.894,29.956C2004.482,1589.498,2004.558,1595.037,2005.601,1600.103z"/>
		<path style="fill:#FCB4B4;" d="M1716.092,1600.103l7.298,34.718l11.659,55.377c2.218,10.472,12.492,17.188,22.956,14.987
			c7.735-1.631,13.422-7.702,14.957-14.987l11.658-55.377l7.298-34.718c4.417-20.944-8.986-41.509-29.933-45.929
			c-20.928-4.42-41.478,8.992-45.894,29.956C1714.974,1589.498,1715.049,1595.037,1716.092,1600.103z"/>
		<path style="fill:#F49F9F;" d="M1716.092,1600.103l7.298,34.718h61.23l7.298-34.718c4.417-20.944-8.986-41.509-29.933-45.929
			c-20.928-4.42-41.478,8.992-45.894,29.956C1714.974,1589.498,1715.049,1595.037,1716.092,1600.103z"/>
		<path style="fill:#FCB4B4;" d="M801.962,1600.103l7.298,34.718l11.659,55.377c2.218,10.472,12.492,17.188,22.956,14.987
			c7.735-1.631,13.422-7.702,14.957-14.987l11.658-55.377l7.299-34.718c4.417-20.944-8.986-41.509-29.933-45.929
			c-20.928-4.42-41.478,8.992-45.894,29.956C800.844,1589.498,800.919,1595.037,801.962,1600.103z"/>
		<path style="fill:#F49F9F;" d="M801.962,1600.103l7.298,34.718h61.23l7.299-34.718c4.417-20.944-8.986-41.509-29.933-45.929
			c-20.928-4.42-41.478,8.992-45.894,29.956C800.844,1589.498,800.919,1595.037,801.962,1600.103z"/>
		<path style="fill:#FCB4B4;" d="M482.504,1600.103l7.298,34.718l11.659,55.377c2.218,10.472,12.492,17.188,22.956,14.987
			c7.735-1.631,13.422-7.702,14.957-14.987l11.658-55.377l7.299-34.718c4.417-20.944-8.986-41.509-29.933-45.929
			c-20.929-4.42-41.478,8.992-45.895,29.956C481.386,1589.498,481.461,1595.037,482.504,1600.103z"/>
		<path style="fill:#F49F9F;" d="M482.504,1600.103l7.298,34.718h61.23l7.299-34.718c4.417-20.944-8.986-41.509-29.933-45.929
			c-20.929-4.42-41.478,8.992-45.895,29.956C481.386,1589.498,481.461,1595.037,482.504,1600.103z"/>
		<path style="fill:#F49F9F;" d="M1092.42,1608.224H483.25c-63.092,0-114.239-51.146-114.239-114.239v-32.437h723.408V1608.224z"/>
		<path style="fill:#FCB4B4;" d="M824.435,1395.682c0,36.729,126.129,66.513,281.702,66.513c155.59,0,281.719-29.785,281.719-66.513
			c0-36.728-126.129-66.513-281.719-66.513C950.565,1329.169,824.435,1358.954,824.435,1395.682z"/>
		<path style="fill:#F9C0C0;" d="M770.591,1395.682c340.981-73.514,665.782,0,665.782,0c0-36.728-149.044-66.513-332.901-66.513
			C919.635,1329.169,770.591,1358.954,770.591,1395.682z"/>
		<path style="fill:#FCB4B4;" d="M1441.403,1395.683c0,36.729,117.067,66.513,261.461,66.513
			c144.41,0,261.477-29.785,261.477-66.513c0-36.728-117.067-66.513-261.477-66.513
			C1558.47,1329.17,1441.403,1358.954,1441.403,1395.683z"/>
		<path style="fill:#F9C0C0;" d="M1437.186,1395.682c269.983-73.514,527.156,0,527.156,0c0-36.728-118.011-66.513-263.586-66.513
			C1555.197,1329.169,1437.186,1358.954,1437.186,1395.682z"/>
		<path style="fill:#F49F9F;" d="M1964.342,1395.683c-269.984,73.514-527.156,0-527.156,0c-0.07,1.094-0.134,2.168-0.196,3.235
			c-0.201-1.067-0.405-2.142-0.616-3.235c-340.981,73.514-665.782,0-665.782,0c-1.094,26.598,157.037,66.513,157.037,66.513
			c253.613,58.826,817.078,53.945,1036.914,0L1964.342,1395.683z"/>
		<path style="fill:#FCB4B4;" d="M770.591,1462.196c0,62.856,68.982,146.028,68.982,146.028h1212.855
			c0,0,62.909-83.511,62.909-146.675L770.591,1462.196z"/>
		<path style="fill:#F49F9F;" d="M1964.375,1521.928c0,0-271.347,37.313-496.181,37.313s-540.565-37.313-540.565-37.313
			l-88.054,88.141h1212.865L1964.375,1521.928z"/>
		<polygon style="fill:#F49F9F;" points="750.019,1479.428 369.012,1479.428 369.012,1176.952 839.573,1176.954 		"/>
		<path style="fill:#FCB4B4;" d="M927.628,1265.075v256.852c0,48.68-39.43,88.141-88.054,88.141c-24.322,0-46.33-9.865-62.273-25.82
			c-15.942-15.955-25.8-37.98-25.8-62.321v-256.852c0-48.661,39.43-88.121,88.073-88.121c24.303,0,46.33,9.865,62.254,25.82
			C917.77,1218.709,927.628,1240.735,927.628,1265.075z"/>
		<path style="fill:#F49F9F;" d="M927.628,1265.075v256.852c0,48.68-39.43,88.141-88.054,88.141
			C927.796,1413.255,927.628,1265.075,927.628,1265.075z"/>
		<path style="fill:#F9C0C0;" d="M927.628,1265.075c-89.76-98.84-176.128,0-176.128,0c0-48.661,39.43-88.121,88.073-88.121
			c24.303,0,46.33,9.865,62.254,25.82C917.77,1218.709,927.628,1240.735,927.628,1265.075z"/>
		<path style="fill:#FCB4B4;" d="M1964.375,1265.075v256.852c0,48.68,39.43,88.141,88.054,88.141c24.322,0,46.33-9.865,62.273-25.82
			c15.942-15.955,25.8-37.98,25.8-62.321v-256.852c0-48.661-39.43-88.121-88.073-88.121c-24.303,0-46.331,9.865-62.254,25.82
			C1974.232,1218.709,1964.375,1240.735,1964.375,1265.075z"/>
		<path style="fill:#F49F9F;" d="M1964.375,1265.075v256.852c0,48.68,39.43,88.141,88.054,88.141
			C1967.638,1407.468,1964.375,1265.075,1964.375,1265.075z"/>
		<path style="fill:#F9C0C0;" d="M1964.375,1265.075c89.76-98.84,176.128,0,176.128,0c0-48.661-39.43-88.121-88.073-88.121
			c-24.303,0-46.331,9.865-62.254,25.82C1974.232,1218.709,1964.375,1240.735,1964.375,1265.075z"/>
		
			<ellipse transform="matrix(1 -0.001 0.001 1 -0.9794 0.9415)" style="fill:#F49F9F;" cx="907.5" cy="945.007" rx="15.758" ry="15.77"/>
		
			<ellipse transform="matrix(1 -0.001 0.001 1 -0.9796 0.6703)" style="fill:#F49F9F;" cx="645.949" cy="944.99" rx="15.758" ry="15.77"/>
		<path style="fill:#F9C0C0;" d="M1715.86,843.2c-643.26-107.42-1345.6,0-1345.6,0l-12.79-80.09h1293.21
			c30.25,0,56.08,23.04,61.09,54.49L1715.86,843.2z"/>
	</g>
	<g id="_x32_">
		<path style="fill:#FCB4B4;" d="M2609.194,1600.103l-7.298,34.718l-11.659,55.377c-2.218,10.472-12.492,17.188-22.956,14.987
			c-7.735-1.631-13.422-7.702-14.957-14.987l-11.658-55.377l-7.299-34.718c-4.417-20.944,8.986-41.509,29.933-45.929
			c20.928-4.42,41.478,8.992,45.895,29.956C2610.313,1589.498,2610.237,1595.037,2609.194,1600.103z"/>
		<path style="fill:#F49F9F;" d="M2609.194,1600.103l-7.298,34.718h-61.23l-7.299-34.718c-4.417-20.944,8.986-41.509,29.933-45.929
			c20.928-4.42,41.478,8.992,45.895,29.956C2610.313,1589.498,2610.237,1595.037,2609.194,1600.103z"/>
		<path style="fill:#FCB4B4;" d="M2898.703,1600.103l-7.298,34.718l-11.659,55.377c-2.218,10.472-12.492,17.188-22.956,14.987
			c-7.735-1.631-13.422-7.702-14.957-14.987l-11.658-55.377l-7.299-34.718c-4.417-20.944,8.986-41.509,29.933-45.929
			c20.928-4.42,41.478,8.992,45.895,29.956C2899.821,1589.498,2899.745,1595.037,2898.703,1600.103z"/>
		<path style="fill:#F49F9F;" d="M2898.703,1600.103l-7.298,34.718h-61.23l-7.299-34.718c-4.417-20.944,8.986-41.509,29.933-45.929
			c20.928-4.42,41.478,8.992,45.895,29.956C2899.821,1589.498,2899.745,1595.037,2898.703,1600.103z"/>
		<path style="fill:#FCB4B4;" d="M3063.89,1600.103l-7.298,34.718l-11.658,55.377c-2.218,10.472-12.492,17.188-22.957,14.987
			c-7.735-1.631-13.422-7.702-14.957-14.987l-11.658-55.377l-7.299-34.718c-4.417-20.944,8.986-41.509,29.933-45.929
			c20.928-4.42,41.478,8.992,45.895,29.956C3065.009,1589.498,3064.933,1595.037,3063.89,1600.103z"/>
		<path style="fill:#F49F9F;" d="M3063.89,1600.103l-7.298,34.718h-61.23l-7.299-34.718c-4.417-20.944,8.986-41.509,29.933-45.929
			c20.928-4.42,41.478,8.992,45.895,29.956C3065.009,1589.498,3064.933,1595.037,3063.89,1600.103z"/>
		<path style="fill:#FCB4B4;" d="M3383.348,1600.103l-7.298,34.718l-11.659,55.377c-2.218,10.472-12.492,17.188-22.956,14.987
			c-7.735-1.631-13.422-7.702-14.958-14.987l-11.658-55.377l-7.299-34.718c-4.417-20.944,8.986-41.509,29.933-45.929
			c20.928-4.42,41.478,8.992,45.894,29.956C3384.467,1589.498,3384.391,1595.037,3383.348,1600.103z"/>
		<path style="fill:#F49F9F;" d="M3383.348,1600.103l-7.298,34.718h-61.23l-7.299-34.718c-4.417-20.944,8.986-41.509,29.933-45.929
			c20.928-4.42,41.478,8.992,45.894,29.956C3384.467,1589.498,3384.391,1595.037,3383.348,1600.103z"/>
		<path style="fill:#F49F9F;" d="M2797.641,1461.549h673.567l99.379-622.234c6.367-39.864-22.765-76.201-61.092-76.201h-600.304
			L2797.641,1461.549z"/>
		<polygon style="fill:#F49F9F;" points="2541.158,1479.428 2922.165,1479.428 2922.165,1176.952 2478.962,1176.954 		"/>
		<path style="fill:#FCB4B4;" d="M3508.387,763.112l-12.792,80.086l-98.748,618.355h-673.573l98.76-618.355l4.091-25.596
			c5.013-31.453,30.842-54.491,61.087-54.491H3508.387z"/>
		<path style="fill:#F49F9F;" d="M2773.433,1608.224h609.169c63.093,0,114.239-51.146,114.239-114.239v-32.436h-723.408V1608.224z"
			/>
		<path style="fill:#FCB4B4;" d="M3041.417,1395.682c0,36.729-126.129,66.513-281.702,66.513
			c-155.59,0-281.719-29.785-281.719-66.513c0-36.728,126.129-66.513,281.719-66.513
			C2915.288,1329.169,3041.417,1358.954,3041.417,1395.682z"/>
		<path style="fill:#F9C0C0;" d="M3095.261,1395.682c-340.981-73.514-665.782,0-665.782,0c0-36.728,149.044-66.513,332.901-66.513
			C2946.217,1329.169,3095.261,1358.954,3095.261,1395.682z"/>
		<path style="fill:#F49F9F;" d="M2429.479,1395.683c340.981,73.514,665.782,0,665.782,0
			c8.621,106.542-31.343,81.675-342.507,81.675C2442.751,1477.358,2406.601,1514.161,2429.479,1395.683z"/>
		<path style="fill:#FCB4B4;" d="M2465.512,1211.711L2465.512,1211.711c40.365,0,73.087,33.295,73.087,74.366v175.472h429.579
			v-175.472c0-41.071,32.722-74.366,73.087-74.366l0,0c40.365,0,73.087,33.295,73.087,74.366v208.337
			c0,62.856-50.078,113.811-111.853,113.811h-497.673c-62.078,0-112.401-51.204-112.401-114.368v-207.779
			C2392.425,1245.005,2425.147,1211.711,2465.512,1211.711z"/>
		
			<ellipse transform="matrix(0.001 -1 1 0.001 2049.1963 3941.3367)" style="fill:#F49F9F;" cx="2997.311" cy="945.007" rx="15.77" ry="15.758"/>
		
			<ellipse transform="matrix(0.001 -1 1 0.001 2310.4944 4202.8706)" style="fill:#F49F9F;" cx="3258.863" cy="944.99" rx="15.77" ry="15.758"/>
		<path style="fill:#FCB4B4;" d="M2567.016,1265.075v256.852c0,48.68-39.43,88.141-88.054,88.141
			c-24.322,0-46.33-9.865-62.273-25.82c-15.942-15.955-25.8-37.98-25.8-62.321v-256.852c0-48.661,39.43-88.121,88.073-88.121
			c24.303,0,46.33,9.865,62.254,25.82C2557.158,1218.709,2567.016,1240.735,2567.016,1265.075z"/>
		<path style="fill:#F49F9F;" d="M2567.016,1265.075v256.852c0,48.68-39.43,88.141-88.054,88.141
			C2582.409,1403.717,2567.016,1240.735,2567.016,1265.075z"/>
		<path style="fill:#F9C0C0;" d="M2567.016,1265.075c-89.76-98.84-176.128,0-176.128,0c0-48.661,39.43-88.121,88.073-88.121
			c24.303,0,46.33,9.865,62.254,25.82C2557.158,1218.709,2567.016,1240.735,2567.016,1265.075z"/>
		<path style="fill:#F49F9F;" d="M2567.016,1521.927c0,0,65.381,37.404,166.84,37.404c101.459,0,204.369-37.404,204.369-37.404
			l88.054,88.141h-547.317L2567.016,1521.927z"/>
		<path style="fill:#F9C0C0;" d="M3508.387,763.112l-12.792,80.086c-349.937-94.952-673.56,0-673.56,0l4.091-25.596
			c5.013-31.453,30.842-54.491,61.087-54.491H3508.387z"/>
		<path style="fill:#C92828;" d="M2846.386,626.588c0,0-29.08-16.41-50.069,21.095c-20.989,37.505-5.731,41.213-36.421,82.616
			c-30.69,41.402,21.53,91.808,54.855,94.992c33.325,3.184,4.805,47.608,69.452,44.645
			C2948.849,866.972,3072.223,672.268,2846.386,626.588z"/>
		<path style="fill:#F99370;" d="M2885.973,951.66c-34.231,23.199-66.236,49.936-96.715,77.924
			c-13.064,11.792-25.641,25.979-39.323,37.106c-53.616,42.904-129.602,36.749-188.71,9.536
			c-17.669-7.969-34.414-17.521-50.066-28.885c-13.957-10.452-40.131-26.696-23.454-45.984c6.673-7.181,17.506-8.184,25.329-2.817
			c13.277,8.647,27.943,15.716,42.983,21.298c40.456,14.144,90.583,22.766,128.537-1.5c7.608-5.112,13.743-12.031,18.729-19.669
			c11.919-16.771,24.768-33.806,37.748-49.785c23.226-28.532,47.825-56.294,74.349-81.909
			C2876.111,804.237,2959.326,904.373,2885.973,951.66z"/>
		<path style="fill:#CE4ABF;" d="M2845.66,842.9c0,0-32.91,169.74-51.35,215.69c-1.03,2.57-2.02,4.76-2.95,6.5
			c-12.4,23.2-45.3,43.34-83.73,51.89c-0.01,0-0.02,0.01-0.03,0.01c-16.16,3.6-33.29,5.14-50.29,4.01
			c-34.04-2.27-55.17-15.03-66.73-25.04c-7.96-6.89-11.39-12.49-11.39-12.49c20.68-13.79,16.87-52.51,16.87-52.51
			c2.67-4.34,7.01-8.25,12.46-11.8c22.59-14.75,64.17-23.52,84.22-32.33c36.77-16.16,48.06-77.23,84.06-112.47
			C2812.8,839.13,2845.66,842.9,2845.66,842.9z"/>
		<path style="fill:#F99370;" d="M2497.372,1785.758l125.527-1.378c-0.323-20.065-5.667-60.571-1.683-83.466
			c-0.004,0-56.051-6.666-56.051-6.666c1.502,10.998,11.604,48.685-11.55,54.213c-24.101,5.755-49.397,5.12-64.156,23.317
			C2485.625,1777.892,2490.157,1785.837,2497.372,1785.758z"/>
		<path style="fill:#1D3F70;" d="M2626.581,1772.251c-0.466,4.25-1.593,8.387-3.681,12.13l-126.749,1.391
			c-6.163,0.068-10.69-5.949-8.71-11.786c4.664-13.64,21.154-33.543,79.544-37.24c0,0,19.941,5.698,52.555-0.577
			C2619.541,1736.169,2628.494,1755.02,2626.581,1772.251z"/>
		<path style="fill:#E8C0A6;" d="M2524.703,1769.101c-1.002,0-1.957-0.594-2.369-1.578c-4.771-11.408-13.187-14.822-13.543-14.962
			c-3.095-1.155-1.251-6.029,1.843-4.795c0.437,0.167,10.779,4.242,16.438,17.775
			C2527.804,1767.185,2526.488,1769.135,2524.703,1769.101z"/>
		<path style="fill:#E8C0A6;" d="M2544.632,1766.473c-1.086,0-2.094-0.694-2.444-1.782c-4.253-13.226-15.878-19.232-15.995-19.291
			c-2.988-1.454-0.643-6.133,2.318-4.583c0.554,0.281,13.663,7.054,18.565,22.3
			C2547.629,1764.739,2546.335,1766.499,2544.632,1766.473z"/>
		<path style="fill:#E8C0A6;" d="M2567.308,1763.433c-1.053,0-2.038-0.652-2.416-1.698c-4.945-13.729-16.102-21.112-16.214-21.185
			c-2.811-1.767,0.021-6.159,2.792-4.311c0.515,0.333,12.703,8.34,18.255,23.755
			C2570.349,1761.624,2569.043,1763.463,2567.308,1763.433z"/>
		<path style="fill:#395B96;" d="M2487.513,1773.778l139.069-1.527c-0.466,4.25-1.593,8.387-3.681,12.13l-126.749,1.391
			C2489.902,1785.85,2485.357,1779.643,2487.513,1773.778z"/>
		<path style="fill:#EB5648;" d="M2900.577,1335.286c-72.387,0.241-166.084,41.013-210.107,110.871
			c-43.914,67.067-40.163,189.622-39.608,249.943c-67.814,21.842-108.134,5.046-108.134,5.046
			c-25.552-208.682-32.233-445.452,198.625-501.502c-0.012-0.009,213.4-0.009,213.4-0.009
			C2990.438,1272.374,2958.528,1334.052,2900.577,1335.286z"/>
		<path style="fill:#CE3932;" d="M2831.916,1219.686l-71.226,158.159c-39.457,25.117-77.652,65.736-91.846,115.455
			C2654.729,1255.59,2800.158,1230.057,2831.916,1219.686z"/>
		<path style="fill:#F99370;" d="M2650.956,1814.514l125.527-1.378c-0.322-20.065-5.667-60.571-1.683-83.466
			c-0.004,0-59.917,0.59-59.917,0.59c1.502,10.998,8.584,41.991-7.685,46.957c-23.699,7.235-49.397,5.12-64.156,23.317
			C2639.208,1806.649,2643.741,1814.593,2650.956,1814.514z"/>
		<path style="fill:#1D3F70;" d="M2780.166,1801.008c-0.465,4.25-1.593,8.387-3.681,12.129l-126.749,1.391
			c-6.163,0.068-10.69-5.949-8.71-11.786c4.664-13.64,21.155-33.544,79.545-37.24c0,0,19.942,5.698,52.555-0.577
			C2773.125,1764.926,2782.079,1783.776,2780.166,1801.008z"/>
		<path style="fill:#E8C0A6;" d="M2678.288,1797.857c-1.002,0-1.957-0.594-2.369-1.578c-4.771-11.408-13.187-14.822-13.542-14.962
			c-3.095-1.155-1.251-6.03,1.842-4.795c0.437,0.166,10.779,4.242,16.438,17.774
			C2681.388,1795.941,2680.072,1797.891,2678.288,1797.857z"/>
		<path style="fill:#E8C0A6;" d="M2698.217,1795.23c-1.086,0-2.094-0.694-2.444-1.782c-4.253-13.226-15.878-19.232-15.995-19.291
			c-2.988-1.454-0.643-6.133,2.319-4.583c0.554,0.281,13.663,7.054,18.565,22.3
			C2701.214,1793.496,2699.92,1795.255,2698.217,1795.23z"/>
		<path style="fill:#E8C0A6;" d="M2720.892,1792.189c-1.053,0-2.038-0.652-2.416-1.698c-4.944-13.729-16.102-21.112-16.213-21.185
			c-2.811-1.767,0.021-6.159,2.792-4.312c0.515,0.333,12.702,8.341,18.254,23.755
			C2723.933,1790.38,2722.628,1792.219,2720.892,1792.189z"/>
		<path style="fill:#395B96;" d="M2641.097,1802.534l139.068-1.526c-0.465,4.25-1.593,8.387-3.681,12.129l-126.749,1.391
			C2643.487,1814.606,2638.941,1808.399,2641.097,1802.534z"/>
		<path style="fill:#A523A2;" d="M2794.31,1058.59c-1.03,2.57-2.02,4.76-2.95,6.5c-12.4,23.2-45.3,43.34-83.73,51.89
			c63.349-18.959,32.236-73.086,42.956-112.916c10.72-39.83,38.174-69.644,38.174-69.644L2794.31,1058.59z"/>
		<path style="fill:#EB5648;" d="M3007.634,1360.565c-64.946,39.304-144.098,5.01-189.561,96.795
			c-36.573,79.355-24.656,211.357-17.849,275.865c-67.814,21.842-104.274,0-104.274,0c-56.671-317.59-34.459-564.144,350.77-533.591
			C3046.72,1199.635,3102.396,1303.219,3007.634,1360.565z"/>
		<path style="fill:#CE4ABF;" d="M3014.901,1050.422c0,68.965,28.968,86.532,29.357,159.087c0,0-220.199,39.75-302.905-9.866
			c58.871-120.376-24.406-170.607,47.402-265.225c15.081-20.454,50.312-70.531,65.954-92.923c0.919,0.131,51.884,4.652,52.747,4.756
			C2959.163,884.292,3025.318,840.873,3014.901,1050.422z"/>
		<path style="fill:#F99370;" d="M2862.771,1212.314c-0.471,2.105,0.971,4.153,3.09,4.484c6.15,1.19,12.238,2.944,17.93,5.516
			c-9.616,6.038-21.054,9.341-21.083,9.411c-13.995,1.389-28.04,2.017-42.118,2.012c-4.511-0.111-5.012,6.953-0.465,7.423
			c13.625,1.702,27.369,2.813,41.11,3.224c0.011,0.07,0.027,0.138,0.04,0.208c-14.032,4.48-28.336,8.199-42.858,10.69
			c-17.479,15.104,42.43,1.17,47.337,0.346c0.019,0.03,0.038,0.059,0.056,0.089c-12.485,6.447-25.767,11.372-39.398,14.822
			c-15.866,16.83,43.251-2.128,47.906-4.659c0.04,0.039,0.081,0.077,0.121,0.115c-9.069,6.492-18.964,11.825-29.051,16.611
			c-12.28,17.602,35.316-5.468,39.474-8.135c5.276-1.742,17.817-2.759,37.699-20.236c6.193-5.428,2.723-27.435-3.871-32.118
			c-7.417-5.267-21.181-6.927-24.9-7.289C2887.888,1212.99,2865.482,1205.148,2862.771,1212.314z"/>
		<path style="fill:#F99370;" d="M2483.669,954.108c-2.043,1.22-2.59,3.927-1.248,5.876c3.712,5.828,6.926,12.034,9.184,18.545
			c-12.13-3.122-23.452-9.776-23.531-9.747c-11.729-10.156-22.886-20.927-33.561-32.207c-3.333-3.697-9.371,1.26-6.298,5.258
			c8.972,12.204,18.508,24.054,28.603,35.371c-0.047,0.062-0.09,0.127-0.136,0.189c-14.233-7.84-28.062-16.475-41.072-26.217
			c-25.356-2.542,31.249,34.87,35.632,38.175c-0.01,0.038-0.019,0.075-0.028,0.112c-14.635-5.109-28.653-12.011-41.757-20.311
			c-25.516,0.059,34.513,33.027,40.072,34.835c0,0.062,0,0.123,0,0.184c-12.079-2.339-23.856-6.219-35.341-10.667
			c-23.413,3.517,31.169,24.137,36.459,25.444c5.397,2.904,15.726,12.177,44.805,14.844c9.045,0.842,24.039-18.63,22.787-27.464
			c-1.408-9.936-10.519-22.219-13.05-25.472C2502.181,974.737,2491.465,950.843,2483.669,954.108z"/>
		<path style="fill:#A523A2;" d="M2923.067,842.669c-23.325,106.68-113.238,156.811-77.41,0.23
			c7.138-2.811,46.053,0.403,53.747,0.267c-3.828-4.268,7.919,0.253,8.246-1.138
			C2907.653,842.034,2913.479,841.532,2923.067,842.669z"/>
		<path style="fill:#F99370;" d="M2854.607,826.088c0.459,25.446-0.417,7.67-5.104,57.036
			c-4.873,52.431,13.504,60.483,34.659,13.593c8.24-18.395,23.486-54.693,23.486-54.693s-2.437-21.831-1.454-29.393
			L2854.607,826.088z"/>
		<path style="fill:#CE3932;" d="M2800.224,1733.225c-67.814,21.842-104.274,0-104.274,0s-1.307-6.607-3.291-18.236
			c0,0,41.24,13.916,105.072-4.647C2799.098,1724.658,2800.224,1733.225,2800.224,1733.225z"/>
		<path style="fill:#CE3932;" d="M2650.862,1696.1c-67.814,21.842-108.134,5.046-108.134,5.046s-0.835-6.776-2.033-18.551
			c0,0,33.955,15.356,109.744-3.8C2650.596,1689.65,2650.862,1696.1,2650.862,1696.1z"/>
		<path style="fill:#A523A2;" d="M2855.738,959.854c0.118,8.089-12.588,8.089-12.469,0
			C2843.151,951.765,2855.857,951.765,2855.738,959.854z"/>
		<path style="fill:#A523A2;" d="M2849.504,984.096c0.118,8.089-12.588,8.089-12.469,0
			C2836.917,976.008,2849.623,976.007,2849.504,984.096z"/>
		<path style="fill:#E57D61;" d="M2854.607,826.088c11.189,0.128,34.158-1.298,51.587-13.456c-0.306-1.569-0.59-3.19-0.862-4.829
			c-3.401-15.595-4.366-29.57-4.908-38.562c-0.52-16.95,1.292-23.687-10.136-33.906c-8.161-6.91-21.716-7.777-30.666-1.881
			C2836.507,748.817,2850.758,783.549,2854.607,826.088z"/>
		<path style="fill:#F99370;" d="M2817.658,805.474c21.36,14.723,49.874,14.472,70.98,5.473c1.196-0.513,2.414-1.026,3.548-1.593
			c45.151-21.602,44.485-98.271,17.414-132.957c-16.929-23.943-53.285-33.426-77.362-15.078
			c-16.629,13.463-19.974,33.74-24.385,55.247c-1.476,5.663-4.947,13.349-8.737,18.861
			C2784.659,757.064,2790.173,785.513,2817.658,805.474z"/>
		<path style="fill:#E57D61;" d="M2869.347,698.348c40.742,4.978,42.441,36.813,42.441,36.813l12.054-19.128l-43.633-52.094
			l-35.156-9.499c-7.839,2.565-14.513,7.317-19.729,13.745C2825.324,668.185,2828.604,693.37,2869.347,698.348z"/>
		<path style="fill:#F9F8F3;" d="M2826.073,773.717l26.202-20.538C2858.373,770.326,2842.158,785.201,2826.073,773.717z"/>
		<path style="fill:#C16256;" d="M2840.465,730.03c-2.782-3.461,2.717-7.752,5.397-4.21
			C2848.644,729.281,2843.145,733.571,2840.465,730.03z"/>
		<path style="fill:#C16256;" d="M2811.299,730.787c-2.782-3.461,2.717-7.751,5.397-4.21
			C2819.478,730.038,2813.979,734.329,2811.299,730.787z"/>
		<path style="fill:#C16256;" d="M2826.074,775.012c-1.176,0.042-1.779-1.602-0.8-2.315c0,0,26.201-20.538,26.201-20.538
			c0.564-0.439,1.378-0.342,1.819,0.221c0.441,0.563,0.343,1.377-0.22,1.818C2852.243,754.5,2827.092,775.235,2826.074,775.012z"/>
		<path style="fill:#C16256;" d="M2824.39,758.23c-5.504-0.156-12.356-2.563-6.541-8.447c5.68-4.678,7.777-18.738,7.797-18.88
			c5.598-6.237,0.25,16.076-6.149,20.879c-4.384,4.02,6.565,4.953,10.553,2.609c0.626-0.345,1.414-0.117,1.76,0.51
			C2832.337,758.048,2826.784,757.967,2824.39,758.23z"/>
		<path style="fill:#F99370;" d="M3027.327,851.081c37.159,51.756,69.39,107.49,88.918,168.514
			c38.601,114.323-28.3,181.459-131.392,216.678c-14.369,5.09-28.641,9.513-43.188,13.632c-14.401,5.105-33.044,8.695-38.459-10.138
			c-2.433-9.222,2.104-18.663,10.354-22.695c17.149-8.58,34.03-17.29,50.029-26.786c32.895-20.315,72.341-44.563,81.643-82.362
			c3.371-19.991-5.276-38.568-13.254-56.879c-23.003-47.309-55.907-90.067-90.457-129.607
			C2895.758,865.105,2981.091,795.192,3027.327,851.081z"/>
		<path style="fill:#CE4ABF;" d="M3143.7,1072.33c0.03,60.1-17.35,117.97-62.18,133.27c-8.99,3.08-19.09,4.43-30.38,3.75
			c0,0-14.14-40.09-36.24-54.65c0,0-3.91-8.02-2.21-22.36c0.39-3.32,1.09-6.99,2.21-10.97c5.95-21.17,1.51-56.96-19.8-97.65
			c-21.31-40.68-105-112.4-72.03-181.05c0,0,57.74-54.86,120.8,9.48C3106.93,916.49,3143.67,1032.83,3143.7,1072.33z"/>
		<path style="fill:#A523A2;" d="M3075.042,1204.915c-8.99,3.08-12.613,5.115-23.902,4.435c0,0-14.14-40.09-36.24-54.65
			c0,0-3.91-8.02-2.21-22.36C3028.2,1138.49,3050.872,1148.064,3075.042,1204.915z"/>
		<polygon style="fill:#F49F9F;" points="3115.833,1479.428 3496.841,1479.428 3496.841,1176.952 3026.279,1176.954 		"/>
		<path style="fill:#A523A2;" d="M3014.9,1156.703c-0.802,0-1.559-0.486-1.865-1.279c-4.833-12.487-3.525-18.421-1.547-27.403
			c0.478-2.166,0.971-4.406,1.444-7.013c2.171-11.951,1.034-48.576-11.431-79.086c-11.907-29.145-40.049-62.262-40.332-62.593
			c-0.718-0.84-0.618-2.102,0.222-2.82c0.838-0.717,2.103-0.618,2.819,0.221c0.287,0.336,28.841,33.932,40.994,63.678
			c11.782,28.839,14.375,66.386,11.663,81.314c-0.486,2.68-1.011,5.06-1.474,7.159c-1.888,8.565-3.026,13.736,1.371,25.099
			c0.398,1.03-0.113,2.188-1.144,2.587C3015.385,1156.659,3015.141,1156.703,3014.9,1156.703z"/>
		<path style="fill:#FCB4B4;" d="M2938.225,1265.075v256.852c0,48.68,39.43,88.141,88.054,88.141c24.322,0,46.33-9.865,62.273-25.82
			c15.943-15.955,25.8-37.98,25.8-62.321v-256.852c0-48.661-39.43-88.121-88.073-88.121c-24.302,0-46.33,9.865-62.254,25.82
			C2948.082,1218.709,2938.225,1240.735,2938.225,1265.075z"/>
		<path style="fill:#F49F9F;" d="M2938.225,1265.075v256.852c0,48.68,39.43,88.141,88.054,88.141
			C2946.362,1404.83,2938.225,1265.075,2938.225,1265.075z"/>
		<path style="fill:#F9C0C0;" d="M2938.225,1265.075c89.76-98.84,176.128,0,176.128,0c0-48.661-39.43-88.121-88.073-88.121
			c-24.302,0-46.33,9.865-62.254,25.82C2948.082,1218.709,2938.225,1240.735,2938.225,1265.075z"/>
		<path style="fill:#C92828;" d="M2832.246,661.32c-0.946-36.038,69.008-110.489,141.239-29.088
			c52.667,65.073,174.496,124.688,87.619,182.985c-34.577,13.195,0.072,41.812-19.916,63.554
			c-19.988,21.742-54.29,11.471-47.809,53.006c6.481,41.535-17.819,56.046-46.835,59.237
			c-29.016,3.192-77.214-67.529-49.464-100.394c27.75-32.865-4.078-48.911,4.858-87.086c8.935-38.175,25.689-48.033,25.689-48.033
			l-12.9-31.532C2905.959,682.842,2837.266,699.894,2832.246,661.32z"/>
		<path style="fill:#F99370;" d="M2944.103,735.672c-0.823,26.417-32.332,25.917-32.317-0.511
			C2912.608,708.744,2944.118,709.245,2944.103,735.672z"/>
		<path style="fill:#C16256;" d="M2936.869,742.468c-0.763,0.004-1.374-0.67-1.29-1.429c2.032-14.548-4.58-18.787-13.178-13.344
			c-1.4,0.92-2.82-1.312-1.387-2.188c9.746-6.393,19.749-1.382,17.14,15.801C2938.085,741.973,2937.523,742.468,2936.869,742.468z"
			/>
		<path style="fill:#C16256;" d="M2924.656,743.004c-3.455-0.089,1.367-13.117,10.901-15.748c0.69-0.18,1.401,0.229,1.583,0.921
			c0.183,0.692-0.229,1.401-0.921,1.584C2926.314,732.756,2927.441,742.429,2924.656,743.004z"/>
		<path style="fill:#C16256;" d="M2856.746,720.287c-0.502,0-0.993-0.252-1.277-0.711c-6.979-11.29-17.598-10.806-18.051-10.781
			c-0.781,0.055-1.535-0.579-1.587-1.405c-0.051-0.825,0.573-1.535,1.398-1.589c0.525-0.033,12.836-0.673,20.792,12.198
			c0.436,0.705,0.217,1.629-0.487,2.065C2857.288,720.215,2857.016,720.287,2856.746,720.287z"/>
		<path style="fill:#C16256;" d="M2808.829,718.245c-0.29,0-0.582-0.084-0.84-0.258c-0.687-0.465-0.865-1.397-0.401-2.083
			c0.254-0.374,6.306-9.137,16.423-7.272c0.814,0.15,1.354,0.932,1.204,1.746c-0.149,0.815-0.927,1.36-1.747,1.204
			c-8.211-1.514-13.345,5.929-13.396,6.004C2809.782,718.014,2809.31,718.245,2808.829,718.245z"/>
		<path style="fill:#A523A2;" d="M2590.58,1095.96c-7.96-6.89-11.39-12.49-11.39-12.49c20.68-13.79,16.87-52.51,16.87-52.51
			c2.67-4.34,7.01-8.25,12.46-11.8C2608.52,1019.16,2622.88,1070.41,2590.58,1095.96z"/>
	</g>
	<g id="_x31__1_">
		<path style="fill:#1D3F70;" d="M1213.338,858.516c7.475,21.447,82.857,237.744,87.78,251.848
			c99.119,40.819,195.453,0.914,254.812-77.339c4.27-4.798,7.368-12.835,2.589-17.128c-8.913-8.008-12.134-23.987-10.578-31.057
			c0.772-3.509-3.176-7.6-6.46-6.143C1350.644,1077.016,1314.915,882.601,1213.338,858.516z"/>
		<path style="fill:#163356;" d="M1289.59,1077.302l11.527,33.062c14.501,6.62,34.066,11.951,56.402,14.243
			c-62.565-41.37-5.531-135.205-60.039-176.848L1289.59,1077.302z"/>
		<path style="fill:#662948;" d="M1608.3,768.09c-66.397-47.519-123.071-5.276-148.818,62.649
			c-58.704,154.87-16.976,205.635,6.897,240.359c33.792,49.152,28.939,49.692,134.758,15.862
			c74.17-23.712,38.504-192.873,38.504-192.873C1653.055,871.384,1678.889,767.96,1608.3,768.09z"/>
		<path style="fill:#F99370;" d="M1739.701,1377.429c-2.787,113.748-1.094,143.729-11.959,256.986
			c-2.511,26.822-38.299,33.414-42.469,4.431c-3.861-28.811-4.172-55.977-7.692-84.945c-8.849-84.538-19.939-169.121-32.875-253.144
			C1635.182,1227.789,1739.2,1303.694,1739.701,1377.429z"/>
		<path style="fill:#F99370;" d="M1723.632,1634.586c0,0-9.468,16.766-39.129,1.759L1723.632,1634.586z"/>
		<path style="fill:#1D3F70;" d="M1684.503,1636.344c0,0-5.877,14.399-3.736,27.141c0.523,3.143,1.534,6.174,3.244,8.872
			l94.368-4.242c4.589-0.206,7.706-4.872,5.99-9.132c-0.02-0.051-0.041-0.101-0.062-0.152c-3.967-9.744-17.213-23.978-60.675-24.246
			L1684.503,1636.344z"/>
		<path style="fill:#E8C0A6;" d="M1756.333,1656.903c0.788,0,1.526-0.49,1.804-1.275c3.075-8.687,9.194-11.579,9.452-11.698
			c0.958-0.439,1.384-1.572,0.949-2.531c-0.435-0.96-1.56-1.391-2.52-0.959c-0.319,0.142-7.842,3.605-11.491,13.91
			c-0.352,0.997,0.169,2.09,1.165,2.443C1755.906,1656.868,1756.122,1656.903,1756.333,1656.903z"/>
		<path style="fill:#E8C0A6;" d="M1741.397,1655.778c0.849,0,1.625-0.571,1.85-1.431c2.598-9.959,11.016-14.972,11.1-15.021
			c0.912-0.532,1.222-1.702,0.692-2.615c-0.53-0.913-1.697-1.225-2.611-0.697c-0.402,0.233-9.872,5.818-12.886,17.367
			c-0.267,1.022,0.346,2.068,1.369,2.335C1741.074,1655.757,1741.237,1655.778,1741.397,1655.778z"/>
		<path style="fill:#E8C0A6;" d="M1724.396,1654.459c0.825,0,1.585-0.537,1.833-1.367c3.109-10.421,11.104-16.379,11.184-16.437
			c0.851-0.625,1.037-1.821,0.415-2.674c-0.623-0.851-1.816-1.041-2.671-0.419c-0.37,0.27-9.105,6.734-12.596,18.436
			c-0.302,1.013,0.274,2.079,1.287,2.381C1724.031,1654.433,1724.214,1654.459,1724.396,1654.459z"/>
		<path style="fill:#395B96;" d="M1784.307,1658.832l-103.54,4.654c0.523,3.143,1.534,6.174,3.244,8.872l94.368-4.242
			c4.589-0.206,7.706-4.872,5.99-9.132L1784.307,1658.832z"/>
		<path style="fill:#F99370;" d="M1624.431,1313.963c-2.155,113.762-6.826,227.393-17.061,340.708
			c-2.362,26.836-38.113,33.626-42.443,4.667c-4.021-28.789-4.483-55.953-8.164-84.901c-9.319-84.487-20.879-169.007-34.281-252.958
			C1512.552,1248.567,1623.521,1240.233,1624.431,1313.963z"/>
		<path style="fill:#F99370;" d="M1603.261,1654.866c0,0-9.374,16.819-39.118,1.976L1603.261,1654.866z"/>
		<path style="fill:#1D3F70;" d="M1564.143,1656.842c0,0-5.797,14.432-3.585,27.161c0.541,3.14,1.568,6.166,3.293,8.854
			l94.343-4.766c4.587-0.232,7.679-4.914,5.94-9.165c-0.021-0.051-0.042-0.101-0.063-0.152
			c-4.021-9.722-17.346-23.882-60.809-23.908L1564.143,1656.842z"/>
		<path style="fill:#E8C0A6;" d="M1636.075,1677.001c0.792,0,1.532-0.495,1.808-1.286c3.027-8.703,9.13-11.629,9.388-11.749
			c0.955-0.444,1.376-1.578,0.935-2.536c-0.44-0.957-1.565-1.38-2.525-0.945c-0.317,0.144-7.822,3.648-11.413,13.974
			c-0.347,0.998,0.181,2.088,1.179,2.436C1635.655,1676.966,1635.866,1677.001,1636.075,1677.001z"/>
		<path style="fill:#E8C0A6;" d="M1621.133,1675.959c0.854,0,1.632-0.576,1.853-1.441c2.559-10.033,10.93-15.032,11.014-15.081
			c0.912-0.534,1.219-1.707,0.685-2.618c-0.533-0.913-1.706-1.22-2.618-0.685c-0.401,0.234-9.839,5.873-12.789,17.438
			c-0.261,1.024,0.357,2.066,1.381,2.327C1620.817,1675.939,1620.976,1675.959,1621.133,1675.959z"/>
		<path style="fill:#E8C0A6;" d="M1604.125,1674.734c0.829,0,1.592-0.542,1.836-1.377c3.051-10.439,11.012-16.44,11.092-16.499
			c0.848-0.629,1.027-1.827,0.4-2.676c-0.627-0.848-1.822-1.03-2.672-0.404c-0.369,0.271-9.067,6.785-12.493,18.505
			c-0.297,1.014,0.286,2.078,1.3,2.374C1603.766,1674.709,1603.948,1674.734,1604.125,1674.734z"/>
		<path style="fill:#395B96;" d="M1664.07,1678.774l-103.513,5.229c0.541,3.14,1.568,6.166,3.293,8.854l94.343-4.766
			c4.587-0.232,7.679-4.914,5.94-9.165L1664.07,1678.774z"/>
		<path style="fill:#F99370;" d="M1573.301,1043.027c-0.062-0.061-0.506-0.362-0.487-0.453
			c43.058,35.486,63.348,96.106,77.548,148.834c4.996,20.015,8.907,40.478,12.01,61.164c2.698,18.607,31.026,16.388,30.698-2.451
			c-1.658-84.069-13.096-174.375-64.797-243.931C1591.657,951.143,1532.687,1007.825,1573.301,1043.027z"/>
		<path style="fill:#E8C0A6;" d="M1604.024,981.967l11.142,122.659l0.128,49.522c30.445-9.72,72.16-16.036,72.16-16.036
			c-1.438-5.533-12.151-44.488-13.791-49.548C1641.298,988.745,1604.024,981.967,1604.024,981.967z"/>
		<path style="fill:#D1A68F;" d="M1624.417,1138.264l1.699,18.728c29.879-15.734,61.338-18.879,61.338-18.879
			c-1.438-5.533-2.96-10.831-4.541-15.911C1668.02,1124.439,1643.052,1129.257,1624.417,1138.264z"/>
		<path style="fill:#9358E0;" d="M1448.164,1286.21c2.748,32.264,10.925,68.544,41.189,83.994
			c27.294,14.245,29.476,67.825,30.031,91.426c0,0,138.721,20.376,233.512-11.866c2.544-54.035,8.684-137.434-34.865-177.741
			c-15.476-15.064-32.965-21.75-44.856-39.936v-0.008c-19.647-30.323-9.552-73.043-12.462-108.759
			c-5.216-52.856-18.876-134.301-78.433-150.858c-28.187-4.285-63.166-5.725-88.536,9.74c11.05,29.769-0.109,38.591-10.941,66.661
			c-5.702,15.095-9.898,28.92-14.187,46.025h0.008c-0.821,21.365-6.428,72.349-11.429,102.771
			C1452.741,1226.688,1445.39,1255.99,1448.164,1286.21z"/>
		<path style="fill:#F99370;" d="M1570.977,1037.255c-35.266-0.826-38.54-66.176-38.54-66.176s2.594-12.957,3.088-20.081
			l48.102,10.242l-1.349,11.228l0.014,0.014C1582.831,973.663,1612.184,1038.232,1570.977,1037.255z"/>
		<path style="fill:#E57D61;" d="M1535.894,900.429c0.021,0.359,0.026,0.731,0.06,1.091c0.034,0.503,0.084,0.993,0.148,1.485
			c1.207-0.633,1.246,30.346-0.994,52.6c19.94,11.639,43.676,9.834,48.032,9.393c3.33-23.427,2.643-52.96,1.848-64.061
			c-0.305-2.615-0.561-4.154-0.6-4.472c-0.099-0.71-0.228-1.408-0.386-2.095c-1.62-7.217-6.363-13.053-12.573-16.27
			c-0.014-0.001-0.014-0.001-0.014-0.001c-4.312-2.224-9.312-3.176-14.479-2.475c-5.111,0.706-9.635,2.943-13.164,6.195
			c-0.156,0.127-0.299,0.269-0.44,0.398C1538.548,886.854,1535.683,893.399,1535.894,900.429z"/>
		<path style="fill:#7640CC;" d="M1621.247,1261.133c40.639-6.835,96.784,10.89,96.784,10.89
			c-7.77-7.476-15.835-12.917-23.378-18.526C1660.821,1247.426,1621.247,1261.133,1621.247,1261.133z"/>
		<path style="fill:#7640CC;" d="M1619.809,1261.705c-0.353,0.151-0.664,0.277-0.925,0.395
			C1619.186,1261.958,1619.497,1261.823,1619.809,1261.705z"/>
		<path style="fill:#7640CC;" d="M1617.959,1262.504c0.151-0.067,0.303-0.143,0.454-0.202
			C1618.211,1262.386,1618.059,1262.453,1617.959,1262.504z"/>
		<path style="fill:#7640CC;" d="M1519.384,1461.63c0,0,138.721,20.376,233.512-11.866c0,0,0.597-7.19,1.093-18.551
			c0,0-115.562,28.676-235.556,8.973C1519.51,1452.624,1519.384,1461.63,1519.384,1461.63z"/>
		<path style="fill:#7640CC;" d="M1596.453,1015.378c0,5.867,4.756,10.623,10.623,10.623c5.867,0,10.623-4.756,10.623-10.623
			c0-5.867-4.756-10.623-10.623-10.623C1601.21,1004.755,1596.453,1009.511,1596.453,1015.378z"/>
		<path style="fill:#7640CC;" d="M1628.807,1047.888c0,5.87,4.76,10.621,10.63,10.621c3.675,0,6.921-1.867,8.83-4.718
			c-1.648-5.432-3.456-10.781-5.449-15.969c-1.06-0.362-2.195-0.555-3.381-0.555
			C1633.567,1037.267,1628.807,1042.027,1628.807,1047.888z"/>
		
			<ellipse transform="matrix(0.973 -0.2308 0.2308 0.973 -208.087 405.8738)" style="fill:#7640CC;" cx="1630.746" cy="1092.345" rx="10.623" ry="10.623"/>
		<path style="fill:#7640CC;" d="M1648.392,1133.798c0,5.87,4.76,10.63,10.621,10.63c0.833,0,1.64-0.093,2.413-0.278
			c0.034-6.45-0.193-13.463-0.715-20.83c-0.547-0.093-1.118-0.143-1.699-0.143
			C1653.152,1123.177,1648.392,1127.937,1648.392,1133.798z"/>
		<circle style="fill:#7640CC;" cx="1595.551" cy="1065.998" r="10.623"/>
		
			<ellipse transform="matrix(0.3852 -0.9228 0.9228 0.3852 -63.2124 2178.7129)" style="fill:#7640CC;" cx="1603.501" cy="1136.797" rx="10.623" ry="10.623"/>
		<path style="fill:#7640CC;" d="M1644.583,1179.705c0,5.87,4.752,10.629,10.621,10.629c2.094,0,4.053-0.605,5.693-1.657
			c-0.387-5.525-0.538-11.563-0.421-18.189v-0.008c-1.547-0.891-3.355-1.396-5.273-1.396
			C1649.334,1169.084,1644.583,1173.844,1644.583,1179.705z"/>
		<path style="fill:#7640CC;" d="M1596.453,1190.331c0,5.867,4.756,10.623,10.623,10.623c5.867,0,10.623-4.756,10.623-10.623
			s-4.756-10.623-10.623-10.623C1601.21,1179.708,1596.453,1184.464,1596.453,1190.331z"/>
		<path style="fill:#7640CC;" d="M1651.941,1231.633c0,5.87,4.76,10.629,10.621,10.629c5.718,0,10.385-4.516,10.612-10.175v-0.008
			c0.009-0.008,0.009-0.008,0-0.017c-1.825-2.834-3.49-5.954-4.978-9.427v-0.008c-1.631-1.017-3.566-1.615-5.634-1.615
			C1656.701,1221.012,1651.941,1225.772,1651.941,1231.633z"/>
		<path style="fill:#7640CC;" d="M1552.058,1044.71c0,5.867,4.756,10.623,10.623,10.623s10.623-4.756,10.623-10.623
			s-4.756-10.623-10.623-10.623S1552.058,1038.843,1552.058,1044.71z"/>
		<circle style="fill:#7640CC;" cx="1528.758" cy="1071.098" r="10.623"/>
		
			<ellipse transform="matrix(0.7071 -0.7071 0.7071 0.7071 -319.4885 1426.9047)" style="fill:#7640CC;" cx="1562.682" cy="1099.109" rx="10.623" ry="10.623"/>
		<circle style="fill:#7640CC;" cx="1526.398" cy="1133.801" r="10.623"/>
		<path style="fill:#7640CC;" d="M1552.058,1164.771c0,5.867,4.756,10.623,10.623,10.623s10.623-4.756,10.623-10.623
			s-4.756-10.623-10.623-10.623S1552.058,1158.904,1552.058,1164.771z"/>
		<circle style="fill:#7640CC;" cx="1543.06" cy="1211.578" r="10.623"/>
		
			<ellipse transform="matrix(0.7071 -0.7071 0.7071 0.7071 -408.476 1491.7416)" style="fill:#7640CC;" cx="1596.453" cy="1238.945" rx="10.623" ry="10.623"/>
		<circle style="fill:#7640CC;" cx="1641.114" cy="1286.223" r="10.623"/>
		
			<ellipse transform="matrix(0.987 -0.1607 0.1607 0.987 -180.7803 256.1801)" style="fill:#7640CC;" cx="1493.261" cy="1245.636" rx="10.623" ry="10.623"/>
		<circle style="fill:#7640CC;" cx="1547.645" cy="1266.882" r="10.623"/>
		<path style="fill:#7640CC;" d="M1569.228,1304.895c0,5.867,4.756,10.623,10.623,10.623c5.867,0,10.623-4.756,10.623-10.623
			c0-5.867-4.756-10.623-10.623-10.623C1573.984,1294.272,1569.228,1299.028,1569.228,1304.895z"/>
		<circle style="fill:#7640CC;" cx="1603.501" cy="1364.767" r="10.623"/>
		<circle style="fill:#7640CC;" cx="1655.205" cy="1336.73" r="10.623"/>
		<path style="fill:#7640CC;" d="M1686.296,1292.517c0,5.867,4.756,10.623,10.623,10.623c5.867,0,10.623-4.756,10.623-10.623
			c0-5.867-4.756-10.623-10.623-10.623C1691.052,1281.893,1686.296,1286.65,1686.296,1292.517z"/>
		<path style="fill:#7640CC;" d="M1733.386,1324.296c0,5.861,4.751,10.621,10.621,10.621c1.943,0,3.759-0.521,5.323-1.43
			c-1.371-7.14-5.455-19.851-5.505-19.851C1737.955,1313.637,1733.386,1318.427,1733.386,1324.296z"/>
		<path style="fill:#7640CC;" d="M1694.779,1361.858c0,5.867,4.756,10.623,10.623,10.623s10.623-4.756,10.623-10.623
			c0-5.867-4.756-10.623-10.623-10.623S1694.779,1355.991,1694.779,1361.858z"/>
		<path style="fill:#7640CC;" d="M1699.073,1420.576c0,5.867,4.756,10.623,10.623,10.623s10.623-4.756,10.623-10.623
			c0-5.867-4.756-10.623-10.623-10.623S1699.073,1414.709,1699.073,1420.576z"/>
		<path style="fill:#7640CC;" d="M1648.392,1397.179c0,5.867,4.756,10.623,10.623,10.623c5.867,0,10.623-4.756,10.623-10.623
			s-4.756-10.623-10.623-10.623C1653.148,1386.555,1648.392,1391.312,1648.392,1397.179z"/>
		<path style="fill:#7640CC;" d="M1633.958,1444.414c0,5.867,4.756,10.623,10.623,10.623c5.867,0,10.623-4.756,10.623-10.623
			s-4.756-10.623-10.623-10.623C1638.714,1433.791,1633.958,1438.547,1633.958,1444.414z"/>
		<path style="fill:#7640CC;" d="M1743.368,1397.181c0,5.861,4.751,10.621,10.621,10.621c0.21,0,0.412-0.008,0.614-0.025
			c0.059-6.685,0.017-13.833-0.185-21.2c-0.143-0.017-0.286-0.017-0.429-0.017
			C1748.119,1386.559,1743.368,1391.311,1743.368,1397.181z"/>
		
			<ellipse transform="matrix(0.987 -0.1607 0.1607 0.987 -197.1042 265.5562)" style="fill:#7640CC;" cx="1543.06" cy="1351.235" rx="10.623" ry="10.623"/>
		<circle style="fill:#7640CC;" cx="1583.928" cy="1418.425" r="10.623"/>
		
			<ellipse transform="matrix(0.987 -0.1607 0.1607 0.987 -212.1006 266.5062)" style="fill:#7640CC;" cx="1541.435" cy="1444.414" rx="10.623" ry="10.623"/>
		<path style="fill:#7640CC;" d="M1507.333,1391.033c2.657,5.819,4.726,12.303,6.341,18.913c0.101,0.008,0.202,0.008,0.303,0.008
			c5.861,0,10.621-4.76,10.621-10.621c0-5.87-4.76-10.629-10.621-10.629C1511.462,1388.704,1509.149,1389.578,1507.333,1391.033z"/>
		<path style="fill:#7640CC;" d="M1488.115,1304.895c0,5.867,4.756,10.623,10.623,10.623s10.623-4.756,10.623-10.623
			c0-5.867-4.756-10.623-10.623-10.623S1488.115,1299.028,1488.115,1304.895z"/>
		<path style="fill:#7640CC;" d="M1459.273,1336.128c2.354,5.424,5.096,10.47,8.275,15.011c0.446,0.059,0.9,0.092,1.362,0.092
			c5.87,0,10.621-4.751,10.621-10.621c0-5.87-4.751-10.621-10.621-10.621C1464.638,1329.989,1460.964,1332.504,1459.273,1336.128z"
			/>
		
			<ellipse transform="matrix(0.7071 -0.7071 0.7071 0.7071 -392.1594 1404.0331)" style="fill:#7640CC;" cx="1498.738" cy="1175.395" rx="10.623" ry="10.623"/>
		<path style="fill:#7640CC;" d="M1453.765,1218.615c0.648,0.126,1.312,0.193,1.993,0.193c5.861,0,10.621-4.76,10.621-10.629
			c0-5.374-4.003-9.822-9.183-10.52C1456.153,1204.395,1455.01,1211.383,1453.765,1218.615z"/>
		<path style="fill:#7640CC;" d="M1448.164,1286.21c5.634-0.252,10.125-4.911,10.125-10.613c0-5.828-4.701-10.562-10.52-10.621
			C1447.551,1271.948,1447.668,1279.079,1448.164,1286.21z"/>
		<path style="fill:#7640CC;" d="M1483.9,1096.787c0,5.867,4.756,10.623,10.623,10.623c5.867,0,10.623-4.756,10.623-10.623
			s-4.756-10.623-10.623-10.623C1488.656,1086.164,1483.9,1090.92,1483.9,1096.787z"/>
		<path style="fill:#7640CC;" d="M1464.378,1144.176c1.926,2.001,4.633,3.246,7.636,3.246c5.87,0,10.621-4.76,10.621-10.621
			c0-5.87-4.751-10.629-10.621-10.629c-2.203,0-4.247,0.673-5.937,1.816C1465.597,1132.899,1465.034,1138.306,1464.378,1144.176z"/>
		<path style="fill:#7640CC;" d="M1505.151,1031.058c0,5.867,4.756,10.623,10.623,10.623c5.867,0,10.623-4.756,10.623-10.623
			c0-5.867-4.756-10.623-10.623-10.623C1509.908,1020.435,1505.151,1025.192,1505.151,1031.058z"/>
		<path style="fill:#7640CC;" d="M1515.775,994.133c0,5.867,4.756,10.623,10.623,10.623c5.867,0,10.623-4.756,10.623-10.623
			c0-5.867-4.756-10.623-10.623-10.623C1520.531,983.509,1515.775,988.265,1515.775,994.133z"/>
		<path style="fill:#7640CC;" d="M1592.882,980.251c0,5.87,4.751,10.621,10.621,10.621c3.002,0,5.721-0.883,7.655-2.893
			c-5.35-5.149-11.304-8.603-17.628-11.395C1593,977.845,1592.882,978.796,1592.882,980.251z"/>
		<path style="fill:#7640CC;" d="M1498.327,979.528c1.842,1.556,4.221,2.481,6.82,2.481c5.239,0,9.587-3.793,10.453-8.779
			C1509.334,974.751,1503.49,976.828,1498.327,979.528z"/>
		<path style="fill:#E8C0A6;" d="M1570.977,1037.255c-24.548-0.575-33.593-32.409-36.836-51.695
			c-1.405-8.435-1.704-14.481-1.704-14.481s35.746,20.706,49.842,1.389l0.014,0.014c0.16,0.347,2.809,6.184,5.425,14.235
			C1594,1006.008,1600.05,1037.949,1570.977,1037.255z"/>
		<path style="fill:#D1A68F;" d="M1587.718,986.717c-4.888,3.249-12.683,6.071-25.035,6.142
			c-11.988,0.065-21.485-3.288-28.542-7.299c-1.405-8.435-1.704-14.481-1.704-14.481s35.746,20.706,49.842,1.389l0.014,0.014
			C1582.453,972.829,1585.102,978.666,1587.718,986.717z"/>
		<path style="fill:#F99370;" d="M1511.477,846.353c-4.536,23.446-6.195,51.135,5.931,72.18l0.029,0.01
			c4.916,8.453,12.157,15.341,20.623,20.476c44.948,33.774,129.895-5.613,104.576-63.042c-4.335-9.175-6.476-20.163-6.355-29.382
			C1640.234,749.994,1525.321,764.319,1511.477,846.353z"/>
		<path style="fill:#C16256;" d="M1600.965,863.625c1.442-1.343,1.523-3.602,0.179-5.044c-1.343-1.442-3.601-1.523-5.044-0.179
			c-1.442,1.343-1.522,3.601-0.179,5.044C1597.264,864.888,1599.522,864.969,1600.965,863.625z"/>
		<path style="fill:#C16256;" d="M1630.872,869.202c1.442-1.343,1.523-3.601,0.179-5.044c-1.343-1.442-3.601-1.523-5.044-0.179
			c-1.442,1.343-1.522,3.601-0.179,5.044C1627.172,870.465,1629.43,870.545,1630.872,869.202z"/>
		<path style="fill:#C16256;" d="M1611.535,895.041c-2.051-0.485-4.015-1.322-5.513-2.487c-0.588-0.458-0.695-1.306-0.236-1.894
			c0.459-0.593,1.304-0.692,1.896-0.238c3.745,2.917,10.558,2.988,12.083,1.367c0.537-0.573-0.129-1.576-0.784-2.317
			c-5.765-6.525-5.61-21.897-5.602-22.549c0.012-0.745,0.624-1.341,1.37-1.33c0.787,0.016,1.342,0.626,1.331,1.37
			c-0.002,0.149-0.148,14.979,4.924,20.722c2.767,3.13,1.43,5.206,0.73,5.954C1619.9,895.588,1615.55,895.99,1611.535,895.041z"/>
		<path style="fill:#E57D61;" d="M1511.477,846.353c-4.536,23.446-6.195,51.135,5.931,72.18l0.029,0.01
			c-5.287-15.579-1.478-44.712-1.478-44.712l8.963-10.298c85.951,3.327,101.958-60.822,101.958-60.822
			C1591.776,750.036,1518.794,792.149,1511.477,846.353z"/>
		<path style="fill:#662948;" d="M1577.248,763.336c-73.84,5.948-70.267,71.179-70.267,71.179l19.702,22.666
			c77.94,0.191,94.038-62.951,94.038-62.951C1613.835,781.901,1596.889,761.754,1577.248,763.336z"/>
		<path style="fill:#F99370;" d="M1493.322,852.392c-1.644,11.45,4.492,21.805,13.704,23.127
			c9.212,1.322,18.013-6.888,19.657-18.338c1.644-11.45-4.492-21.805-13.704-23.127
			C1503.766,832.731,1494.966,840.942,1493.322,852.392z"/>
		<path style="fill:#C16256;" d="M1499.554,860.56c-0.622-0.147-1.07-0.724-1.034-1.388c0.521-9.545,2.987-15.307,7.33-17.12
			c5.885-2.467,12.632,3.417,12.919,3.671c0.558,0.494,0.609,1.346,0.116,1.904c-0.494,0.557-1.346,0.612-1.905,0.12
			c-0.055-0.053-5.774-5.01-10.095-3.201c-3.255,1.365-5.214,6.474-5.668,14.774c-0.039,0.745-0.676,1.315-1.421,1.274
			C1499.711,860.59,1499.632,860.578,1499.554,860.56z"/>
		<path style="fill:#C16256;" d="M1512.045,863.12c-0.568-0.134-1.004-0.63-1.038-1.243c-0.005-0.106-0.669-10.766-8.595-14.277
			c-0.682-0.303-0.99-1.099-0.689-1.782c0.301-0.682,1.123-0.992,1.783-0.687c9.457,4.189,10.171,16.102,10.197,16.607
			c0.037,0.743-0.533,1.378-1.278,1.416C1512.294,863.161,1512.166,863.149,1512.045,863.12z"/>
		<path style="fill:#F4D4BE;" d="M1502.936,869.072c-0.576,1.572,0.232,3.313,1.805,3.889c1.572,0.576,3.314-0.233,3.889-1.805
			c0.575-1.572-0.232-3.314-1.805-3.889C1505.253,866.692,1503.511,867.5,1502.936,869.072z"/>
		<path style="fill:#C16256;" d="M1588.148,851.232c0.253,0.06,0.524,0.05,0.786-0.044c10.651-3.822,17.68,0.433,17.751,0.474
			c0.653,0.409,1.505,0.205,1.909-0.445c0.404-0.65,0.206-1.505-0.444-1.909c-0.332-0.208-8.249-5-20.152-0.73
			c-0.72,0.259-1.095,1.052-0.836,1.773C1587.326,850.81,1587.707,851.128,1588.148,851.232z"/>
		<path style="fill:#C16256;" d="M1620.37,854.353c0.256,0.06,0.532,0.049,0.797-0.049c7.332-2.704,12.56,1.599,12.777,1.783
			c0.588,0.495,1.458,0.42,1.953-0.161c0.494-0.582,0.427-1.453-0.155-1.949c-0.265-0.229-6.639-5.554-15.533-2.274
			c-0.719,0.265-1.086,1.062-0.822,1.78C1619.554,853.936,1619.933,854.249,1620.37,854.353z"/>
		
			<ellipse transform="matrix(0.9686 -0.2486 0.2486 0.9686 -134.888 406.7896)" style="fill:#662948;" cx="1543.149" cy="737.454" rx="24.011" ry="29.094"/>
		
			<ellipse transform="matrix(0.4403 -0.8978 0.8978 0.4403 229.1203 1868.5306)" style="fill:#662948;" cx="1613.353" cy="750.483" rx="29.094" ry="24.011"/>
		<path style="fill:#C16256;" d="M1607.568,907.837c-0.508,0-0.991-0.3-1.199-0.798c-4.381-10.488-16.833-11.441-16.958-11.449
			c-0.715-0.048-1.257-0.666-1.21-1.381c0.047-0.715,0.676-1.262,1.378-1.211c0.577,0.037,14.175,1.044,19.186,13.04
			c0.276,0.662-0.036,1.422-0.698,1.699C1607.905,907.805,1607.735,907.837,1607.568,907.837z"/>
		<path style="fill:#F99370;" d="M1497.446,1062.589c-16.038,38.878-49.98,123.496-17.413,158.61
			c25.588,17.972,62.197,10.346,92.673,13.45c17.162,1.135,18.612,26.664,1.869,29.84c-56.208,15.05-126.163,26.961-156.3-37.185
			c-26.01-61.176-7.932-131.749,20.175-188.75C1455.381,996.049,1516.516,1020.845,1497.446,1062.589z"/>
		<path style="fill:#E8C0A6;" d="M1479.07,1133.798c-3.299,8.506-5.558,13.623-5.558,13.623
			c-43.777,7.415-71.555-17.051-71.555-17.051c0.559-4.857,1.182-9.558,1.87-14.103c19.467-128.162,89.917-134.07,89.917-134.07
			C1520.743,1016.038,1491.953,1100.67,1479.07,1133.798z"/>
		<path style="fill:#D1A68F;" d="M1479.07,1133.798c-3.299,8.506-5.558,13.623-5.558,13.623
			c-43.777,7.415-71.555-17.051-71.555-17.051c0.559-4.857,1.182-9.558,1.87-14.103l0.013-0.013
			C1403.841,1116.253,1436.151,1139.888,1479.07,1133.798z"/>
		<path style="fill:#F99370;" d="M1561.138,1787.327l-125.527-1.378c0.323-20.065,5.667-60.571,1.683-83.466
			c0.004,0,56.051-6.666,56.051-6.666c-1.502,10.998-11.604,48.685,11.55,54.213c24.101,5.755,49.397,5.12,64.156,23.317
			C1572.885,1779.462,1568.353,1787.406,1561.138,1787.327z"/>
		<path style="fill:#EB5648;" d="M1431.929,1773.821c0.465,4.25,1.593,8.387,3.681,12.13l126.749,1.391
			c6.163,0.068,10.69-5.949,8.71-11.786c-4.664-13.64-21.154-33.543-79.544-37.24c0,0-19.942,5.698-52.555-0.577
			C1438.969,1737.739,1430.015,1756.589,1431.929,1773.821z"/>
		<path style="fill:#E8C0A6;" d="M1533.807,1770.67c1.002,0,1.957-0.594,2.369-1.578c4.771-11.408,13.187-14.822,13.543-14.962
			c3.095-1.155,1.251-6.03-1.843-4.795c-0.436,0.166-10.779,4.242-16.437,17.774
			C1530.706,1768.754,1532.022,1770.704,1533.807,1770.67z"/>
		<path style="fill:#E8C0A6;" d="M1513.877,1768.043c1.086,0,2.094-0.694,2.444-1.782c4.253-13.226,15.878-19.232,15.995-19.291
			c2.988-1.454,0.642-6.133-2.318-4.583c-0.554,0.281-13.663,7.054-18.565,22.3
			C1510.88,1766.309,1512.174,1768.068,1513.877,1768.043z"/>
		<path style="fill:#E8C0A6;" d="M1491.202,1765.002c1.053,0,2.038-0.652,2.416-1.698c4.944-13.729,16.102-21.112,16.214-21.185
			c2.811-1.767-0.021-6.159-2.792-4.312c-0.515,0.333-12.703,8.341-18.255,23.755
			C1488.161,1763.193,1489.466,1765.032,1491.202,1765.002z"/>
		<path style="fill:#CE3932;" d="M1570.997,1775.348l-139.068-1.527c0.465,4.25,1.593,8.387,3.681,12.13l126.749,1.391
			C1568.607,1787.419,1573.153,1781.212,1570.997,1775.348z"/>
		<path style="fill:#3A72AA;" d="M1157.933,1336.856c72.387,0.241,166.084,41.013,210.107,110.87
			c43.914,67.067,40.163,189.622,39.608,249.943c67.814,21.842,108.134,5.046,108.134,5.046
			c25.553-208.682,32.233-445.452-198.625-501.502c0.012-0.009-213.4-0.009-213.4-0.009
			C1068.072,1273.943,1099.982,1335.621,1157.933,1336.856z"/>
		<path style="fill:#23659B;" d="M1226.594,1221.255l71.226,158.159c39.457,25.117,77.652,65.736,91.846,115.455
			C1403.781,1257.159,1258.352,1231.626,1226.594,1221.255z"/>
		<path style="fill:#F99370;" d="M1407.554,1816.083l-125.527-1.378c0.322-20.065,5.667-60.571,1.683-83.466
			c0.004,0,59.917,0.59,59.917,0.59c-1.502,10.998-8.584,41.991,7.685,46.957c23.699,7.235,49.397,5.12,64.156,23.317
			C1419.301,1808.218,1414.769,1816.162,1407.554,1816.083z"/>
		<path style="fill:#EB5648;" d="M1278.344,1802.577c0.465,4.25,1.593,8.387,3.681,12.13l126.749,1.391
			c6.163,0.068,10.69-5.949,8.71-11.786c-4.664-13.64-21.154-33.544-79.544-37.241c0,0-19.942,5.698-52.555-0.577
			C1285.385,1766.495,1276.431,1785.346,1278.344,1802.577z"/>
		<path style="fill:#E8C0A6;" d="M1380.222,1799.427c1.002,0,1.957-0.594,2.369-1.578c4.771-11.408,13.187-14.822,13.543-14.962
			c3.095-1.155,1.251-6.03-1.843-4.795c-0.437,0.167-10.779,4.242-16.437,17.775
			C1377.121,1797.51,1378.438,1799.461,1380.222,1799.427z"/>
		<path style="fill:#E8C0A6;" d="M1360.293,1796.799c1.086,0,2.094-0.694,2.444-1.782c4.253-13.226,15.878-19.232,15.995-19.291
			c2.988-1.454,0.642-6.133-2.318-4.583c-0.554,0.281-13.663,7.054-18.565,22.3
			C1357.296,1795.065,1358.59,1796.824,1360.293,1796.799z"/>
		<path style="fill:#E8C0A6;" d="M1337.618,1793.759c1.053,0,2.038-0.652,2.416-1.698c4.944-13.729,16.102-21.112,16.214-21.185
			c2.811-1.767-0.021-6.159-2.792-4.312c-0.515,0.333-12.702,8.34-18.254,23.755
			C1334.577,1791.949,1335.882,1793.789,1337.618,1793.759z"/>
		<path style="fill:#CE3932;" d="M1417.413,1804.104l-139.068-1.527c0.465,4.25,1.593,8.387,3.681,12.13l126.749,1.391
			C1415.023,1816.176,1419.569,1809.969,1417.413,1804.104z"/>
		<path style="fill:#3A72AA;" d="M1050.876,1362.135c64.946,39.304,144.098,5.01,189.561,96.795
			c36.573,79.355,24.656,211.357,17.849,275.865c67.814,21.842,104.274,0,104.274,0c56.671-317.59,34.459-564.144-350.77-533.591
			C1011.79,1201.204,956.114,1304.788,1050.876,1362.135z"/>
		<path style="fill:#23659B;" d="M1258.286,1734.795c67.814,21.842,104.274,0,104.274,0s1.307-6.607,3.291-18.236
			c0,0-41.24,13.916-105.072-4.647C1259.411,1726.228,1258.286,1734.795,1258.286,1734.795z"/>
		<path style="fill:#23659B;" d="M1407.648,1697.669c67.814,21.842,108.134,5.046,108.134,5.046s0.835-6.776,2.033-18.551
			c0,0-33.955,15.356-109.743-3.8C1407.914,1691.219,1407.648,1697.669,1407.648,1697.669z"/>
		<path style="fill:#8C4225;" d="M1198.116,652.581c0,0-27.186-30.285-73.433-18.948c-46.247,11.338-34.932,42.111-53.35,67.216
			c-16.515,22.511-14.891,49.322,0,76.201c11.233,20.277-21.25,26.239-14.891,54.752c6.847,30.697,124.244,53.351,178.397,23.339
			c54.153-30.012,10.422-81.615,12.851-109.045C1250.121,718.666,1198.116,652.581,1198.116,652.581z"/>
		<path style="fill:#F99370;" d="M1202.257,835.314c-0.495,5.433-1.313,11.274-2.351,16.233c0.429,19.7-51.53,16.914-52.516-4.215
			c1.049-12.321,5.52-69.875,0.987-75.3c-6.413-33.933,48.205-42.969,52.893-8.597
			C1204.135,780.848,1204.226,813.855,1202.257,835.314z"/>
		<path style="fill:#E57D61;" d="M1202.257,835.314c-34.336,7.194-53.465-6.666-53.465-6.666l0.469-7.452
			c0.783-10.51,0.728-10.805,0.999-19.972l53.309,0.74C1203.646,812.757,1203.322,824.483,1202.257,835.314z"/>
		<path style="fill:#8C4225;" d="M1189.751,651.667c67.896-15.653,90.487,91.75,48.042,136.725L1189.751,651.667z"/>
		<path style="fill:#F99370;" d="M1116.897,736.897c-0.766,24.065,2.009,51.897,17.447,70.909l0.03,0.006
			c43.354,54.83,157.766,5.241,117.835-62.4c-12.692-17.286-11.062-43.236-20.631-59.839
			C1194.427,622.126,1115.903,674.967,1116.897,736.897z"/>
		<path style="fill:#C16256;" d="M1208.748,739.782c2.922-3.642-2.864-8.148-5.678-4.422
			C1200.148,739.002,1205.934,743.508,1208.748,739.782z"/>
		<path style="fill:#C16256;" d="M1239.415,740.551c2.922-3.641-2.864-8.148-5.678-4.422
			C1230.814,739.771,1236.6,744.277,1239.415,740.551z"/>
		<path style="fill:#C16256;" d="M1222.225,769.094c6.481,1.178,17.383-1.232,10.321-8.565c-5.97-4.906-8.194-19.694-8.216-19.843
			c-5.89-6.548-0.248,16.902,6.485,21.946c4.611,4.222-6.892,5.214-11.093,2.753c-0.662-0.364-1.488-0.121-1.849,0.538
			C1217.025,768.251,1220.587,768.59,1222.225,769.094z"/>
		<path style="fill:#E57D61;" d="M1116.897,736.897c-0.766,24.065,2.009,51.897,17.447,70.909l0.03,0.006
			c-7.755-14.664-8.622-44.276-8.622-44.276l7.276-11.685c86.1-10.433,91.778-76.856,91.778-76.856
			C1181.338,628.18,1115.574,681.742,1116.897,736.897z"/>
		<path style="fill:#8C4225;" d="M1217.318,667.536c0,0-5.928,65.435-83.551,77.709l-23.239-19.414
			C1094.807,671.114,1154.945,606.895,1217.318,667.536z"/>
		<path style="fill:#F99370;" d="M1099.789,745.813c0.596,27.635,34.307,27.07,33.978-0.568
			C1133.171,717.61,1099.459,718.175,1099.789,745.813z"/>
		<path style="fill:#C16256;" d="M1107.143,752.927c0.878,0.181,1.722-0.585,1.613-1.48c-2.317-15.089,5.086-19.804,13.841-14.042
			c1.469,0.967,2.966-1.381,1.456-2.302C1113.896,727.193,1100.719,736.826,1107.143,752.927z"/>
		<path style="fill:#C16256;" d="M1119.985,753.479c6.004,0.61-6.787-20.518-12.883-15.555c-0.191,0.728,0.243,1.473,0.97,1.665
			C1118.235,742.673,1117.597,752.658,1119.985,753.479z"/>
		<path style="fill:#F4D4BE;" d="M1112.027,760.881c-0.812,3.882,5.304,5.069,6.002,1.164
			C1118.841,758.163,1112.725,756.977,1112.027,760.881z"/>
		<path style="fill:#C16256;" d="M1241.719,730.586c-1.127,0-8.734-0.246-15.114-6.626c-0.465-0.465-0.465-1.218,0-1.682
			c0.464-0.465,1.218-0.465,1.682,0c6.019,6.018,13.434,5.928,13.506,5.928c0.661-0.047,1.201,0.506,1.216,1.161
			c0.015,0.656-0.502,1.2-1.157,1.217C1241.831,730.585,1241.787,730.586,1241.719,730.586z"/>
		<path style="fill:#C16256;" d="M1198.291,730.586c-0.158,0-0.317-0.032-0.471-0.098c-0.603-0.26-0.881-0.961-0.62-1.563
			c4.109-9.516,14.228-9.627,14.656-9.627c0.657,0,1.189,0.532,1.189,1.19c0,0.656-0.531,1.188-1.187,1.189l0,0
			c-0.366,0.002-8.996,0.134-12.476,8.191C1199.189,730.317,1198.751,730.586,1198.291,730.586z"/>
		<path style="fill:#1D3F70;" d="M1013.278,1210.51c119.521,37.045,276.313,20.743,294.251-1.712
			c19.154-23.978,11.421-52.21-1.478-99.839c-10.146-37.461,24.682-96.615,5.328-136.217
			c-35.775-73.203-79.071-106.161-79.071-106.161s-45.148,11.98-120.583-6.662C1042.014,901.529,1013.278,1210.51,1013.278,1210.51z
			"/>
		<path style="fill:#1D3F70;" d="M1138.25,1258.49c-2,1.37-13.42,1.39-29.9-1.21c-54.6-8.63-164.65-45.99-171.05-158.04
			c-6.61-115.85,69.445-214.945,174.42-239.32c0,0,18,50.31,3.34,93.44c-21.31,62.76-105.87,101.07,34.02,248.22
			c2.93,3.07,5.95,6.2,9.07,9.37C1173.27,1226.32,1147.35,1253,1138.25,1258.49z"/>
		<path style="fill:#EB5648;" d="M1199.906,851.547c0,0,21.401-3.107,33.527,14.207c0,0-5.888,20.477-33.156,30.82
			c0,0-5.019-12.533-13.605-20.954c0,0-3.269,12.213-4.523,23.81c0,0-52.085,5.57-70.424-39.511c0,0,19.855-14.091,35.665-12.587
			C1154.997,865.74,1191.469,871.127,1199.906,851.547z"/>
		<path style="fill:#F99370;" d="M1567.17,1234.144c0,0,31.011-15.381,60.25,4.627c17.792,12.175,7.813,13.168-1.093,15.824
			c-10.909,3.254-32.183,8.024-56.093,10.848L1567.17,1234.144z"/>
		<path style="fill:#163356;" d="M1150.49,1207.766c-0.551,0-1.1-0.227-1.495-0.671c-43.008-48.354-69.86-80.536-79.569-130.697
			c-9.468-48.916,32.811-101.142,34.615-103.341c0.701-0.853,1.961-0.977,2.814-0.278c0.854,0.701,0.979,1.961,0.278,2.815
			c-0.43,0.525-42.889,52.987-33.781,100.044c9.529,49.231,34.795,79.514,78.632,128.799c0.734,0.825,0.66,2.09-0.166,2.823
			C1151.438,1207.599,1150.963,1207.766,1150.49,1207.766z"/>
		<path style="fill:#F99370;" d="M1230.4,1226.035c0.221,2.285-1.571,4.259-3.852,4.331c-6.652,0.449-13.313,1.502-19.664,3.472
			c9.365,7.641,21.012,12.632,21.034,12.71c14.601,3.305,29.354,5.813,44.225,7.656c4.78,0.475,4.381,8.003-0.483,7.902
			c-14.615,0.009-29.279-0.623-43.848-1.994c-0.021,0.072-0.047,0.143-0.069,0.214c14.234,6.576,28.855,12.382,43.867,16.92
			c16.479,18.25-44.973-4.337-50.048-5.852c-0.023,0.029-0.048,0.057-0.071,0.086c12.341,8.45,25.724,15.396,39.669,20.83
			c14.549,19.862-45.407-7.928-49.992-11.213c-0.048,0.036-0.095,0.07-0.143,0.105c8.727,8.048,18.479,14.981,28.505,21.361
			c10.659,20.206-36.586-10.414-40.628-13.777c-5.344-2.533-18.458-5.254-37.164-26.326c-5.828-6.547,0.727-29.337,8.307-33.417
			c8.526-4.589,23.283-4.535,27.259-4.43C1203.781,1223.45,1228.477,1218.109,1230.4,1226.035z"/>
		<polygon style="fill:#F99370;" points="1139.957,1257.351 1161.737,1262.462 1175.023,1227.034 1162.67,1220.266 		"/>
		<path style="fill:#163356;" d="M1138.25,1258.49c-2,1.37-13.42,1.39-29.9-1.21c0.01,0,0.01-0.01,0.02-0.01
			c30.65-17.42,40.71-55.69,40.71-55.69c2.93,3.07,5.95,6.2,9.07,9.37C1173.27,1226.32,1147.35,1253,1138.25,1258.49z"/>
		<path style="fill:#E57D61;" d="M1622.574,1237.45c-0.124,0-0.249-0.022-0.371-0.071c-9.965-3.984-21.931-1.408-22.051-1.381
			c-0.542,0.117-1.073-0.222-1.192-0.76c-0.12-0.539,0.22-1.073,0.759-1.193c0.513-0.114,12.678-2.741,23.227,1.477
			c0.513,0.205,0.763,0.787,0.558,1.3C1623.347,1237.213,1622.971,1237.45,1622.574,1237.45z"/>
		<path style="fill:#E57D61;" d="M1601.136,1244.532c-0.46,0-0.874-0.319-0.976-0.788c-0.117-0.539,0.225-1.071,0.765-1.189
			c0.646-0.14,15.995-3.418,30.142-1.248c0.546,0.084,0.921,0.594,0.837,1.14c-0.083,0.547-0.597,0.923-1.14,0.837
			c-13.776-2.112-29.26,1.193-29.415,1.227C1601.278,1244.525,1601.206,1244.532,1601.136,1244.532z"/>
		<path style="fill:#E57D61;" d="M1603.548,1253.043c-0.481,0-0.905-0.348-0.986-0.838c-0.09-0.545,0.279-1.059,0.824-1.148
			c0.177-0.029,17.827-2.944,31.061-5.82c0.542-0.118,1.072,0.226,1.189,0.766c0.117,0.539-0.225,1.072-0.765,1.189
			c-13.284,2.886-30.983,5.809-31.161,5.838C1603.656,1253.039,1603.602,1253.043,1603.548,1253.043z"/>
		<path style="fill:#C16256;" d="M1214.507,787.338c-0.566,0-1.151-0.063-1.748-0.191c-2.186-0.468-4.287-1.763-5.917-3.645
			c-3.447-3.981-3.71-9.422-0.586-12.127c1.563-1.352,3.694-1.827,6.002-1.331c2.186,0.468,4.287,1.763,5.917,3.645
			c3.447,3.981,3.71,9.422,0.586,12.127C1217.602,786.819,1216.131,787.338,1214.507,787.338z M1210.523,772.234
			c-1.057,0-1.994,0.32-2.709,0.94c-2.133,1.847-1.762,5.781,0.827,8.771c1.294,1.495,2.933,2.516,4.616,2.876
			c1.559,0.333,2.962,0.049,3.946-0.804c2.133-1.847,1.762-5.781-0.827-8.771c-1.294-1.495-2.933-2.516-4.616-2.876
			C1211.334,772.279,1210.92,772.234,1210.523,772.234z"/>
	</g>
</g>
</svg>
